# xmcd
#
# Track frame offsets: 
#        150
#        14197
#        25967
#        38725
#        52452
#        65657
#        80157
#        94522
#
# Disc length: 1428 seconds
#
# Revision: 2
# Processed by: cddbd v1.5PL3 Copyright (c) Steve Scherf et al.
# Submitted via: ExactAudioCopy v0.90b4
#
DISCID=71059208
DTITLE=Sweethearts Of The Rodeo - Sweethearts Of The Rodeo
DYEAR=1900
DGENRE=Country
TTITLE0=Midnight Girl-Sunset Town
TTITLE1=Hey Doll Baby
TTITLE2=Since I Found You
TTITLE3=Gotta Get Away
TTITLE4=Chains Of Gold
TTITLE5=Chosen Few
TTITLE6=Everywhere I Turn
TTITLE7=I Can't Resist
EXTD=
EXTT0=
EXTT1=
EXTT2=
EXTT3=
EXTT4=
EXTT5=
EXTT6=
EXTT7=
PLAYORDER=
